<svg xmlns="http://www.w3.org/2000/svg" width="87.73217mm" height="87.733047mm" viewBox="0 0 87.732169 87.733048"><defs><linearGradient id="a" x1="0" x2="1" y1="0" y2="0" gradientTransform="scale(-81.48747) rotate(-45.168 -.698 .938)" gradientUnits="userSpaceOnUse" spreadMethod="pad"><stop offset="0" style="stop-opacity:1;stop-color:#fff"/><stop offset="0.1" style="stop-opacity:1;stop-color:#fff"/><stop offset="0.76326681" style="stop-opacity:1;stop-color:#00a9de"/><stop offset="1" style="stop-opacity:1;stop-color:#00a9de"/></linearGradient><linearGradient id="b" x1="0" x2="1" y1="0" y2="0" gradientTransform="scale(60.03086) rotate(-60.866 1.127 .076)" gradientUnits="userSpaceOnUse" spreadMethod="pad"><stop offset="0" style="stop-opacity:1;stop-color:#fff"/><stop offset="1" style="stop-opacity:1;stop-color:#00a9de"/></linearGradient><linearGradient id="c" x1="0" x2="1" y1="0" y2="0" gradientTransform="rotate(-45.168 86.283 12.073) scale(58.24962)" gradientUnits="userSpaceOnUse" spreadMethod="pad"><stop offset="0" style="stop-opacity:1;stop-color:#fff"/><stop offset="0.05" style="stop-opacity:1;stop-color:#fff"/><stop offset="0.53884406" style="stop-opacity:1;stop-color:#00a9de"/><stop offset="1" style="stop-opacity:1;stop-color:#00a9de"/></linearGradient></defs><path d="M44.298 33.508c5.423-6.792 13.297-8.192 19.012-4.916 8.768 5.03 8.547 22.867-3.418 33.989-2.964 2.757-13.914 11.496-29.507 7.934-15.754-3.6-26.7-17.387-27.863-32.375l.003-.001c-.502-4.796.518-10.223 2.928-15.455A43.683 43.683 0 0 0 0 43.995c.071 24.227 19.767 43.808 43.994 43.738 24.228-.07 43.809-19.767 43.738-43.993 0-.162-.012-.323-.014-.485C86.4 31.03 79.564 22.63 66.584 21.933c-.385-.02-.774-.031-1.168-.031-6.794 0-14.931 3.123-21.118 11.606" style="fill:url(#a);stroke:none;stroke-width:.35278"/><path d="M43.739 0C27.24.05 12.904 9.203 5.453 22.684c-2.41 5.232-3.43 10.659-2.928 15.455.722 6.868 4.573 12.448 11.986 14.296 10.73 2.68 19.21-3.371 29.09-17.937a34.158 34.158 0 0 1 .697-.99c6.546-8.975 15.274-11.95 22.286-11.575 12.98.696 19.817 9.097 21.134 21.322C87.388 19.3 67.872.001 43.869 0h-.13" style="fill:url(#b);stroke:none;stroke-width:.35278"/><path d="M44.298 33.508a34.158 34.158 0 0 0-.696.99c-9.88 14.566-18.36 20.618-29.09 17.937-7.414-1.848-11.265-7.428-11.987-14.296l-.003.001c1.162 14.988 12.11 28.776 27.863 32.375 15.593 3.562 26.543-5.177 29.507-7.934 11.965-11.122 12.186-28.959 3.418-33.989a12.868 12.868 0 0 0-6.424-1.692c-4.382 0-9.016 2.135-12.588 6.608" style="fill:url(#c);stroke:none;stroke-width:.35278"/></svg>