<svg xmlns="http://www.w3.org/2000/svg" width="800" height="800" viewBox="0 0 800 800" version="1.1"><path d="M 382.812 225.882 C 378.033 226.772, 373.796 227.838, 373.395 228.250 C 372.994 228.662, 371.643 229, 370.392 229 C 369.141 229, 367.861 229.415, 367.548 229.923 C 367.234 230.431, 365.632 231.142, 363.989 231.503 C 362.345 231.864, 361 232.573, 361 233.079 C 361 233.586, 360.408 234, 359.684 234 C 358.960 234, 357.331 235.846, 356.062 238.103 L 353.756 242.206 354.359 246.603 C 354.691 249.021, 354.633 250.989, 354.231 250.976 C 353.829 250.963, 351.700 250.493, 349.500 249.932 C 344.539 248.667, 325.231 246.679, 318.500 246.740 C 305.350 246.861, 269.001 250.688, 268 252.057 C 267.725 252.434, 265.925 252.988, 264 253.290 C 262.075 253.591, 257.575 254.574, 254 255.473 C 228.681 261.846, 226.662 262.140, 204.500 262.681 C 182.923 263.208, 176.767 262.599, 168.750 259.144 C 166.688 258.255, 165 257.184, 165 256.764 C 165 256.344, 164.388 256, 163.640 256 C 162.893 256, 160.755 254.349, 158.890 252.330 C 147.495 239.995, 142.760 236, 139.535 236 C 138.691 236, 138 235.550, 138 235 C 138 233.434, 126.652 233.828, 123.280 235.510 C 119.085 237.603, 115.078 241.816, 114.342 244.907 C 114.002 246.333, 113.224 248.132, 112.612 248.904 C 111.163 250.734, 111.493 288.893, 112.971 290.371 C 113.537 290.937, 113.996 292.998, 113.992 294.950 C 113.982 299.066, 117.143 312.341, 118.250 312.833 C 118.662 313.017, 119 314.254, 119 315.583 C 119 316.913, 119.450 318, 120 318 C 120.550 318, 121 318.447, 121 318.993 C 121 320.701, 124.433 328, 125.236 328 C 125.656 328, 126 328.469, 126 329.043 C 126 331.799, 145.249 354, 147.639 354 C 147.999 354, 150.216 355.575, 152.565 357.500 C 154.915 359.425, 157.080 361, 157.378 361 C 157.675 361, 159.962 362.234, 162.459 363.743 L 167 366.485 167 369.684 C 167 371.443, 166.658 373.094, 166.239 373.352 C 165.820 373.611, 164.583 376.787, 163.489 380.411 C 162.395 384.035, 161.162 387, 160.750 387 C 160.338 387, 160 387.778, 160 388.729 C 160 390.226, 156.554 400.430, 153.997 406.500 C 153.534 407.600, 152.398 410.750, 151.472 413.500 C 149.683 418.812, 148.245 422.530, 147.010 425.033 C 146.595 425.876, 145.937 428.008, 145.550 429.771 C 145.163 431.534, 144.431 433.234, 143.923 433.548 C 143.415 433.861, 143 435.190, 143 436.500 C 143 437.810, 142.633 439.109, 142.185 439.386 C 141.737 439.663, 140.499 442.614, 139.435 445.945 C 138.371 449.275, 137.163 452, 136.750 452 C 136.338 452, 136 453.125, 136 454.500 C 136 455.875, 135.599 457, 135.108 457 C 134.618 457, 133.934 458.125, 133.589 459.500 C 133.244 460.875, 132.520 462, 131.981 462 C 131.441 462, 131 462.684, 131 463.520 C 131 466.018, 124.726 475.344, 120.658 478.893 C 113.693 484.969, 112.365 485.970, 111.250 485.984 C 110.563 485.993, 110 486.450, 110 487 C 110 487.550, 109.518 488, 108.928 488 C 107.375 488, 98.137 497.026, 96.442 500.200 C 94.403 504.018, 94.628 506.330, 97.667 512.812 C 100.402 518.646, 111.231 530.304, 115.038 531.512 C 116.117 531.855, 117 532.554, 117 533.067 C 117 533.580, 117.862 534, 118.917 534 C 119.971 534, 120.983 534.337, 121.167 534.750 C 121.650 535.837, 127.912 539, 129.581 539 C 130.361 539, 131 539.399, 131 539.887 C 131 540.807, 132.162 541.126, 143 543.175 C 146.575 543.850, 149.765 544.784, 150.088 545.249 C 150.930 546.460, 183.547 545.556, 189.448 544.159 C 195.700 542.678, 201.222 540.825, 202.450 539.796 C 204.273 538.269, 205.647 539.026, 207.812 542.750 C 209.012 544.813, 210.782 547.404, 211.746 548.508 C 214.347 551.487, 222.935 557.411, 227.500 559.375 C 229.700 560.322, 232.281 561.525, 233.236 562.048 C 234.191 562.572, 235.660 563, 236.500 563 C 237.340 563, 238.809 563.402, 239.764 563.894 C 242.706 565.410, 255.613 567.004, 264.269 566.921 C 272.776 566.839, 285.270 565.063, 286.585 563.749 C 286.996 563.337, 288.357 563, 289.608 563 C 290.859 563, 292.160 562.550, 292.500 562 C 292.840 561.450, 293.863 561, 294.774 561 C 296.473 561, 313.101 553.237, 314 552.024 C 314.275 551.653, 315.962 550.499, 317.750 549.459 C 319.538 548.419, 321 547.216, 321 546.784 C 321 546.353, 321.633 546, 322.407 546 C 325.385 546, 343.213 528.554, 348.465 520.500 C 352.029 515.035, 357 504.765, 357 502.868 C 357 501.841, 357.450 501, 358 501 C 358.550 501, 359.015 500.212, 359.033 499.250 C 359.070 497.225, 362.394 487.273, 363.353 486.314 C 363.709 485.958, 364 484.617, 364 483.333 C 364 482.050, 364.450 481, 365 481 C 365.550 481, 366.014 479.988, 366.032 478.750 C 366.049 477.512, 366.712 475.644, 367.503 474.598 L 368.943 472.695 369.334 503.598 C 369.705 532.941, 370.259 541.223, 372.003 543.500 C 372.424 544.050, 373.082 545.962, 373.464 547.750 C 373.846 549.538, 374.573 551, 375.079 551 C 375.586 551, 376 551.616, 376 552.368 C 376 554.555, 384.751 562.701, 389.644 565.070 C 397.997 569.114, 400.772 569.402, 434.500 569.735 L 467.500 570.062 472.868 567.281 C 479.382 563.906, 485.347 558.314, 488.132 552.971 C 489.271 550.787, 490.458 549, 490.772 549 C 491.085 549, 493.627 551.405, 496.421 554.345 C 499.214 557.284, 503.525 560.794, 506 562.144 C 513.591 566.283, 522.989 570, 525.866 570 C 527.370 570, 529.028 570.406, 529.550 570.902 C 530.073 571.398, 539.356 572.548, 550.179 573.459 L 569.858 575.115 584.179 574.025 C 592.056 573.426, 603.450 572.481, 609.500 571.924 C 615.550 571.368, 622.975 570.687, 626 570.412 C 629.025 570.136, 632.400 569.535, 633.500 569.076 C 635.233 568.353, 641.258 567.172, 652.500 565.350 C 654.150 565.082, 656.400 564.486, 657.500 564.023 C 658.600 563.561, 663.212 562.354, 667.748 561.341 C 672.284 560.329, 675.997 559.163, 675.998 558.750 C 675.999 558.337, 676.772 558, 677.717 558 C 680.227 558, 688 554.874, 688 553.864 C 688 553.389, 688.469 553, 689.042 553 C 690.267 553, 692.294 551.423, 695.319 548.117 C 696.519 546.806, 697.974 545.231, 698.552 544.617 C 700.275 542.789, 703 535.169, 703 532.180 C 703 530.651, 703.483 528.917, 704.074 528.326 C 704.809 527.591, 705 518.782, 704.681 500.376 C 704.212 473.332, 703.361 464.334, 700.858 459.929 C 699.112 456.857, 693.868 452.037, 692.250 452.016 C 691.563 452.007, 691 451.550, 691 451 C 691 450.450, 689.930 450, 688.622 450 C 687.315 450, 685.703 449.347, 685.040 448.548 L 683.836 447.097 684.858 443.798 C 687.961 433.783, 688.147 428.971, 687.632 372 C 687.347 340.375, 686.691 310.225, 686.176 305 C 685.240 295.506, 683.302 285.943, 682.124 285 C 681.781 284.725, 680.443 282.396, 679.150 279.824 C 676.815 275.178, 667.158 265, 665.084 265 C 664.488 265, 664 264.550, 664 264 C 664 263.450, 663.562 263, 663.027 263 C 662.492 263, 659.680 261.915, 656.777 260.590 C 651.614 258.231, 650.180 257.815, 641 256.006 C 634.951 254.814, 602.473 254.867, 592.500 256.085 C 581.571 257.420, 572.001 258.751, 569 259.355 C 567.625 259.632, 560.875 260.584, 554 261.471 C 547.125 262.358, 538.748 263.515, 535.385 264.042 C 517.946 266.774, 502.141 264.063, 493.920 256.929 C 492.589 255.774, 490.211 253.855, 488.636 252.665 C 487.061 251.474, 483.607 248.363, 480.960 245.750 C 478.313 243.137, 475.664 241, 475.074 241 C 474.483 241, 473.997 240.662, 473.994 240.250 C 473.977 238.315, 467.499 236.002, 462.169 236.028 L 456.500 236.056 452.660 238.962 C 449.241 241.550, 446 242.081, 446 240.054 C 446 239.651, 444.205 238.462, 442.011 237.411 C 439.818 236.360, 438.018 235.162, 438.011 234.750 C 438.005 234.338, 437.100 234, 436 234 C 434.900 234, 434 233.555, 434 233.012 C 434 232.468, 432.200 231.736, 430 231.384 C 427.800 231.032, 426 230.352, 426 229.872 C 426 229.392, 424.644 229, 422.986 229 C 421.329 229, 419.191 228.567, 418.236 228.039 C 416.308 226.971, 397.183 223.925, 393.710 224.132 C 392.494 224.204, 387.590 224.992, 382.812 225.882 M 388.500 244.863 C 387.950 245.410, 385.970 246.002, 384.101 246.179 C 382.086 246.369, 380.253 247.265, 379.601 248.379 L 378.500 250.257 379.750 250.712 C 380.438 250.962, 381 251.939, 381 252.883 C 381 253.828, 381.387 255.028, 381.860 255.550 C 382.333 256.072, 383.507 259.875, 384.469 264 C 385.431 268.125, 386.707 272.400, 387.305 273.500 C 388.031 274.835, 388.506 291.384, 388.734 323.250 L 389.076 371 374.038 371 L 359 371 359 369.559 C 359 368.766, 359.450 367.840, 360 367.500 C 360.550 367.160, 361.003 366.121, 361.006 365.191 C 361.010 364.261, 361.685 362.211, 362.506 360.636 C 363.328 359.060, 364 356.923, 364 355.886 C 364 354.849, 364.450 354, 365 354 C 365.550 354, 366.015 353.212, 366.033 352.250 C 366.070 350.225, 369.394 340.273, 370.353 339.314 C 370.709 338.958, 371 337.482, 371 336.033 C 371 334.585, 371.449 332.951, 371.997 332.403 C 372.545 331.855, 373.518 326.607, 374.158 320.742 L 375.323 310.079 374.205 302.289 C 373.105 294.629, 371.225 289.023, 369.750 289.008 C 369.337 289.004, 369 288.345, 369 287.545 C 369 285.236, 358.898 275.527, 354.500 273.609 C 342.917 268.558, 340.258 267.966, 326.500 267.380 C 311.829 266.754, 281.326 268.925, 276.500 270.939 C 275.400 271.398, 271.800 272.241, 268.500 272.812 C 260.102 274.265, 256.810 275.017, 254.500 276.011 C 251.166 277.446, 239.566 280, 236.386 280 C 234.744 280, 232.973 280.414, 232.450 280.919 C 229.174 284.088, 174.681 284.144, 170.500 280.982 C 169.950 280.566, 167.590 279.911, 165.255 279.526 C 162.921 279.141, 160.757 278.415, 160.446 277.913 C 160.136 277.411, 159.009 277, 157.941 277 C 156.873 277, 156 276.550, 156 276 C 156 275.450, 155.531 275, 154.958 275 C 153.506 275, 151.597 273.437, 144.272 266.250 C 140.627 262.674, 137.022 260, 135.845 260 L 133.788 260 134.433 268.250 C 134.787 272.788, 135.302 279.425, 135.578 283 C 135.853 286.575, 136.474 290.400, 136.958 291.500 C 137.442 292.600, 138.097 295.008, 138.414 296.851 C 139.142 301.081, 145.362 313.750, 148.511 317.415 C 149.823 318.942, 151.033 320.486, 151.199 320.846 C 152 322.585, 161.312 329.833, 165.159 331.711 C 173.860 335.960, 178.927 337.086, 196.250 338.626 L 203 339.226 203 341.054 C 203 342.059, 202.550 343.160, 202 343.500 C 201.450 343.840, 201 345.216, 201 346.559 C 201 347.902, 200.635 349, 200.189 349 C 199.743 349, 198.543 351.813, 197.522 355.250 C 196.501 358.688, 195.302 362.175, 194.858 363 C 193.118 366.233, 191 372.338, 191 374.122 C 191 375.155, 190.602 376, 190.117 376 C 189.631 376, 189.010 377.012, 188.737 378.250 C 188.240 380.506, 184.440 391.750, 182.907 395.500 C 179.772 403.170, 179 405.466, 179 407.122 C 179 408.155, 178.550 409, 178 409 C 177.450 409, 177 410.125, 177 411.500 C 177 412.875, 176.601 414, 176.114 414 C 175.626 414, 174.923 416.025, 174.552 418.500 C 174.181 420.975, 173.455 423, 172.939 423 C 172.422 423, 172 423.906, 172 425.014 C 172 426.121, 171.550 427.921, 171 429.014 C 170.450 430.106, 169.581 431.845, 169.068 432.877 C 168.556 433.909, 167.831 436.384, 167.457 438.377 C 167.083 440.370, 166.377 442, 165.889 442 C 165.400 442, 165 443.098, 165 444.441 C 165 445.784, 164.585 447.139, 164.077 447.452 C 163.569 447.766, 162.837 449.466, 162.450 451.229 C 162.063 452.992, 161.403 455.124, 160.985 455.967 C 157.430 463.133, 155 468.734, 155 469.764 C 155 470.444, 154.550 471, 154 471 C 153.450 471, 153 471.675, 153 472.500 C 153 473.325, 152.662 474.004, 152.250 474.009 C 151.838 474.015, 150.612 476.040, 149.526 478.509 C 148.440 480.979, 147.203 483, 146.776 483 C 146.349 483, 146 483.473, 146 484.051 C 146 485.241, 133.902 497.976, 132.758 497.991 C 132.349 497.996, 130.913 498.958, 129.566 500.130 L 127.117 502.259 128.308 503.380 C 130.510 505.450, 134.450 506.869, 142.757 508.586 L 151.013 510.292 163.007 508.458 C 169.603 507.449, 175 506.258, 175 505.812 C 175 505.365, 175.663 505, 176.473 505 C 179.522 505, 196.901 495.847, 197.833 493.750 C 198.017 493.337, 198.598 493, 199.126 493 C 200.135 493, 201.548 491.948, 205.503 488.250 C 206.826 487.012, 208.380 486, 208.955 486 C 209.530 486, 210.015 485.663, 210.034 485.250 C 210.053 484.837, 212.302 482.025, 215.032 479 C 217.763 475.975, 219.997 472.938, 219.998 472.250 C 219.999 471.563, 220.371 471, 220.824 471 C 222.314 471, 232 447.589, 232 443.989 C 232 442.895, 232.350 442, 232.778 442 C 233.206 442, 234.357 439.188, 235.335 435.750 C 236.313 432.313, 237.501 428.600, 237.976 427.500 C 238.451 426.400, 240.029 422.125, 241.482 418 C 242.935 413.875, 244.546 409.719, 245.062 408.764 C 245.578 407.809, 246 406.211, 246 405.214 C 246 404.216, 246.358 402.972, 246.795 402.450 C 247.232 401.928, 248.409 398.800, 249.411 395.500 C 251.225 389.525, 252.118 387.030, 253.977 382.750 C 254.515 381.512, 255.662 378.250, 256.528 375.500 C 257.393 372.750, 258.480 369.600, 258.945 368.500 C 260.930 363.795, 263 357.312, 263 355.800 C 263 354.902, 263.337 354.017, 263.750 353.833 C 264.669 353.425, 268 343.850, 268 341.616 C 268 340.727, 268.450 340, 269 340 C 269.550 340, 270 338.902, 270 337.559 C 270 336.216, 270.399 334.871, 270.887 334.570 C 271.374 334.269, 272.049 332.552, 272.386 330.755 C 272.825 328.419, 273.782 327.180, 275.749 326.405 C 279.539 324.912, 287.933 322.290, 291.232 321.568 C 295.222 320.696, 302 321.992, 302 323.628 C 302 324.383, 302.450 325, 303 325 C 304.091 325, 304.404 333.263, 303.353 334.314 C 302.394 335.273, 299.070 345.225, 299.033 347.250 C 299.015 348.212, 298.550 349, 298 349 C 297.450 349, 296.985 349.788, 296.967 350.750 C 296.930 352.775, 293.606 362.727, 292.647 363.686 C 292.291 364.042, 292 365.164, 292 366.180 C 292 367.196, 291.562 368.809, 291.026 369.764 C 290.490 370.719, 288.887 375.100, 287.464 379.500 C 286.040 383.900, 284.492 388.400, 284.023 389.500 C 283.554 390.600, 282.395 393.975, 281.448 397 C 280.501 400.025, 279.380 403.400, 278.956 404.500 C 275.911 412.406, 275 415.289, 275 417.020 C 275 418.109, 274.550 419, 274 419 C 273.450 419, 273 420.098, 273 421.441 C 273 422.784, 272.589 424.136, 272.087 424.446 C 271.585 424.757, 270.871 426.806, 270.500 429 C 270.129 431.194, 269.415 433.243, 268.913 433.554 C 268.411 433.864, 268 435.126, 268 436.359 C 268 437.592, 267.630 439.028, 267.177 439.550 C 266.724 440.073, 265.506 443.200, 264.471 446.500 C 263.436 449.800, 262.232 452.927, 261.795 453.450 C 261.358 453.972, 261 455.360, 261 456.533 C 261 457.707, 260.709 458.958, 260.353 459.314 C 259.394 460.273, 256.070 470.225, 256.033 472.250 C 256.015 473.212, 255.550 474, 255 474 C 254.450 474, 253.986 475.012, 253.968 476.250 C 253.951 477.488, 253.276 479.374, 252.468 480.441 C 251.661 481.509, 251 483.196, 251 484.191 C 251 485.186, 250.660 486, 250.244 486 C 249.828 486, 248.854 487.463, 248.079 489.250 C 245.699 494.740, 239.129 505.289, 235.472 509.489 C 233.563 511.683, 232 513.821, 232 514.239 C 232 514.658, 231.363 515, 230.583 515 C 229.804 515, 229.017 515.356, 228.833 515.791 C 228.650 516.227, 226.859 517.819, 224.854 519.331 C 220.202 522.837, 220.592 525.658, 225.860 526.606 C 227.862 526.966, 229.950 527.591, 230.500 527.995 C 231.557 528.771, 242.110 530.265, 245.500 530.119 C 253.784 529.762, 263 528.648, 263 528.004 C 263 527.577, 265.015 526.925, 267.477 526.556 C 269.939 526.187, 272.215 525.460, 272.536 524.942 C 272.856 524.424, 273.991 524, 275.059 524 C 276.127 524, 277 523.550, 277 523 C 277 522.450, 277.639 522, 278.419 522 C 280.088 522, 286.350 518.837, 286.833 517.750 C 287.017 517.337, 287.804 517, 288.583 517 C 289.363 517, 290 516.580, 290 516.067 C 290 515.554, 290.788 514.882, 291.750 514.573 C 293.796 513.917, 300.570 508.302, 304.722 503.819 C 305.395 503.094, 306.413 502.050, 306.985 501.500 C 310.817 497.816, 315.171 492.168, 315.650 490.259 C 315.962 489.017, 316.569 488, 317 488 C 318.020 488, 321 480.536, 321 477.980 C 321 476.891, 321.450 476, 322 476 C 322.550 476, 323 474.875, 323 473.500 C 323 472.125, 323.450 471, 324 471 C 324.550 471, 325.016 469.988, 325.035 468.750 C 325.055 467.512, 325.714 465.375, 326.500 464 C 327.286 462.625, 327.945 460.488, 327.965 459.250 C 327.984 458.012, 328.450 457, 329 457 C 329.550 457, 330 456.228, 330 455.283 C 330 453.138, 333.617 442.727, 336.048 437.873 C 336.496 436.978, 337.170 434.611, 337.545 432.612 C 337.920 430.613, 338.626 428.731, 339.113 428.430 C 339.601 428.129, 340 427.002, 340 425.927 C 340 424.852, 340.417 423.191, 340.926 422.236 C 341.435 421.281, 342.537 418.700, 343.374 416.500 L 344.897 412.500 344.948 415.693 C 345.009 419.460, 348.595 426, 350.599 426 C 351.369 426, 352 426.360, 352 426.799 C 352 428.895, 359.543 430, 373.844 430 L 389.046 430 388.969 474.845 C 388.918 504.983, 389.262 521.155, 390.018 524.156 L 391.142 528.622 394.821 530.422 C 396.844 531.412, 399.281 532.622, 400.236 533.111 C 401.191 533.600, 411.256 534, 422.601 534 L 443.229 534 448.115 531.341 C 450.802 529.879, 453 528.116, 453 527.424 C 453 526.733, 453.465 526.012, 454.033 525.822 C 455.361 525.380, 455.455 286.248, 454.129 282.840 C 451.156 275.198, 449.598 272, 448.848 272 C 448.382 272, 448 271.400, 448 270.666 C 448 268.762, 435.940 256.423, 433.250 255.575 C 432.012 255.184, 431 254.446, 431 253.933 C 431 253.420, 430.100 253, 429 253 C 427.900 253, 427 252.640, 427 252.201 C 427 248.911, 391.275 242.102, 388.500 244.863 M 464.618 261.552 C 463.770 263.762, 465.140 286.969, 466.156 287.596 C 466.620 287.883, 467 289.532, 467 291.260 C 467 295.061, 470.133 306, 471.222 306 C 471.650 306, 472.003 306.788, 472.006 307.750 C 472.012 309.430, 472.991 311.647, 476.073 316.961 C 477.754 319.860, 478.244 320.514, 483.500 326.863 C 485.700 329.521, 489.043 332.776, 490.928 334.098 C 492.813 335.419, 494.838 336.950, 495.428 337.500 C 497.168 339.123, 503.912 342, 505.975 342 C 507.024 342, 508.135 342.410, 508.445 342.911 C 510.023 345.464, 530.552 345.152, 568 342.006 C 574.875 341.428, 581.513 341.199, 582.750 341.497 L 585 342.038 585 357.519 C 585 366.034, 584.663 373.009, 584.250 373.020 C 583.837 373.031, 580.350 373.510, 576.500 374.085 C 556.076 377.135, 505.937 379.199, 501.537 377.171 C 500.416 376.655, 496.800 375.394, 493.500 374.370 C 490.200 373.346, 487.275 372.215, 487 371.857 C 486.725 371.498, 485.150 371.046, 483.500 370.852 L 480.500 370.500 480.774 381 C 480.924 386.775, 481.416 415.125, 481.866 444 C 482.649 494.193, 483.506 507.906, 486.016 510.416 C 486.557 510.957, 487 512.210, 487 513.200 C 487 514.190, 487.420 515, 487.933 515 C 488.446 515, 489.140 515.866, 489.476 516.924 C 490.213 519.245, 497.574 527, 499.041 527 C 499.614 527, 501.044 527.894, 502.217 528.988 C 503.390 530.081, 505.852 531.257, 507.686 531.601 C 509.521 531.945, 511.269 532.626, 511.570 533.113 C 511.871 533.601, 513.801 534, 515.859 534 C 517.917 534, 520.163 534.563, 520.851 535.250 L 522.102 536.500 555.950 536.456 C 578.979 536.426, 590.230 536.061, 591.149 535.314 C 591.892 534.710, 595.875 533.958, 600 533.643 C 609.798 532.894, 623.646 530.702, 624.590 529.750 C 624.999 529.337, 626.983 529, 629 529 C 631.017 529, 633.003 528.663, 633.414 528.250 C 634.067 527.594, 636.651 526.956, 649.250 524.343 C 650.763 524.030, 652 523.374, 652 522.887 C 652 522.399, 652.849 522, 653.886 522 C 656.542 522, 660.098 519.993, 663.546 516.547 L 666.500 513.595 666.800 488.566 C 666.965 474.800, 666.859 462.573, 666.563 461.395 C 666.267 460.217, 664.669 458.691, 663.011 458.004 L 659.996 456.756 652.748 458.598 C 648.762 459.612, 645.275 460.734, 645 461.092 C 644.725 461.449, 642.925 462.001, 641 462.319 C 636.905 462.994, 627.164 465.390, 625 466.253 C 623.395 466.894, 621.508 467.252, 607.500 469.580 C 587.661 472.876, 551.863 474.961, 549.452 472.960 L 548 471.755 548 453.517 L 548 435.279 559.750 434.589 C 609.083 431.694, 635.940 429.049, 638.450 426.837 C 638.972 426.377, 640.255 426, 641.300 426 C 642.345 426, 644.752 424.448, 646.650 422.550 L 650.099 419.101 649.765 357.300 L 649.430 295.500 647.996 292.250 C 647.207 290.462, 646.210 289, 645.781 289 C 645.351 289, 644.993 288.438, 644.984 287.750 C 644.947 284.865, 635.839 277, 632.535 277 C 631.691 277, 631 276.529, 631 275.953 C 631 274.672, 602.573 275.316, 590 276.883 C 585.325 277.466, 576.473 278.518, 570.330 279.221 C 564.186 279.925, 558.824 280.837, 558.413 281.250 C 558.003 281.663, 554.682 282, 551.033 282 C 547.385 282, 543.949 282.451, 543.398 283.002 C 542.816 283.584, 534.671 284.083, 523.948 284.193 C 505.478 284.382, 503.060 284.068, 494.349 280.346 C 492.616 279.606, 490.703 279, 490.099 279 C 489.494 279, 489 278.550, 489 278 C 489 277.450, 488.100 277, 487 277 C 485.900 277, 485 276.633, 485 276.184 C 485 275.735, 483.215 274.365, 481.034 273.139 C 477.550 271.181, 472.187 266.334, 468.211 261.551 C 466.572 259.580, 465.375 259.580, 464.618 261.552" stroke="none" fill="#000000" fill-rule="evenodd"/><path d="M -0 400.001 L -0 800.002 400.250 799.751 L 800.500 799.500 800.751 399.750 L 801.002 0 400.501 0 L 0 0 -0 400.001 M 0.495 400.500 C 0.495 620.500, 0.610 710.351, 0.750 600.169 C 0.890 489.986, 0.890 309.986, 0.750 200.169 C 0.610 90.351, 0.495 180.500, 0.495 400.500 M 382.812 225.882 C 378.033 226.772, 373.796 227.838, 373.395 228.250 C 372.994 228.662, 371.643 229, 370.392 229 C 369.141 229, 367.861 229.415, 367.548 229.923 C 367.234 230.431, 365.632 231.142, 363.989 231.503 C 362.345 231.864, 361 232.573, 361 233.079 C 361 233.586, 360.408 234, 359.684 234 C 358.960 234, 357.331 235.846, 356.062 238.103 L 353.756 242.206 354.359 246.603 C 354.691 249.021, 354.633 250.989, 354.231 250.976 C 353.829 250.963, 351.700 250.493, 349.500 249.932 C 344.539 248.667, 325.231 246.679, 318.500 246.740 C 305.350 246.861, 269.001 250.688, 268 252.057 C 267.725 252.434, 265.925 252.988, 264 253.290 C 262.075 253.591, 257.575 254.574, 254 255.473 C 228.681 261.846, 226.662 262.140, 204.500 262.681 C 182.923 263.208, 176.767 262.599, 168.750 259.144 C 166.688 258.255, 165 257.184, 165 256.764 C 165 256.344, 164.388 256, 163.640 256 C 162.893 256, 160.755 254.349, 158.890 252.330 C 147.495 239.995, 142.760 236, 139.535 236 C 138.691 236, 138 235.550, 138 235 C 138 233.434, 126.652 233.828, 123.280 235.510 C 119.085 237.603, 115.078 241.816, 114.342 244.907 C 114.002 246.333, 113.224 248.132, 112.612 248.904 C 111.163 250.734, 111.493 288.893, 112.971 290.371 C 113.537 290.937, 113.996 292.998, 113.992 294.950 C 113.982 299.066, 117.143 312.341, 118.250 312.833 C 118.662 313.017, 119 314.254, 119 315.583 C 119 316.913, 119.450 318, 120 318 C 120.550 318, 121 318.447, 121 318.993 C 121 320.701, 124.433 328, 125.236 328 C 125.656 328, 126 328.469, 126 329.043 C 126 331.799, 145.249 354, 147.639 354 C 147.999 354, 150.216 355.575, 152.565 357.500 C 154.915 359.425, 157.080 361, 157.378 361 C 157.675 361, 159.962 362.234, 162.459 363.743 L 167 366.485 167 369.684 C 167 371.443, 166.658 373.094, 166.239 373.352 C 165.820 373.611, 164.583 376.787, 163.489 380.411 C 162.395 384.035, 161.162 387, 160.750 387 C 160.338 387, 160 387.778, 160 388.729 C 160 390.226, 156.554 400.430, 153.997 406.500 C 153.534 407.600, 152.398 410.750, 151.472 413.500 C 149.683 418.812, 148.245 422.530, 147.010 425.033 C 146.595 425.876, 145.937 428.008, 145.550 429.771 C 145.163 431.534, 144.431 433.234, 143.923 433.548 C 143.415 433.861, 143 435.190, 143 436.500 C 143 437.810, 142.633 439.109, 142.185 439.386 C 141.737 439.663, 140.499 442.614, 139.435 445.945 C 138.371 449.275, 137.163 452, 136.750 452 C 136.338 452, 136 453.125, 136 454.500 C 136 455.875, 135.599 457, 135.108 457 C 134.618 457, 133.934 458.125, 133.589 459.500 C 133.244 460.875, 132.520 462, 131.981 462 C 131.441 462, 131 462.684, 131 463.520 C 131 466.018, 124.726 475.344, 120.658 478.893 C 113.693 484.969, 112.365 485.970, 111.250 485.984 C 110.563 485.993, 110 486.450, 110 487 C 110 487.550, 109.518 488, 108.928 488 C 107.375 488, 98.137 497.026, 96.442 500.200 C 94.403 504.018, 94.628 506.330, 97.667 512.812 C 100.402 518.646, 111.231 530.304, 115.038 531.512 C 116.117 531.855, 117 532.554, 117 533.067 C 117 533.580, 117.862 534, 118.917 534 C 119.971 534, 120.983 534.337, 121.167 534.750 C 121.650 535.837, 127.912 539, 129.581 539 C 130.361 539, 131 539.399, 131 539.887 C 131 540.807, 132.162 541.126, 143 543.175 C 146.575 543.850, 149.765 544.784, 150.088 545.249 C 150.930 546.460, 183.547 545.556, 189.448 544.159 C 195.700 542.678, 201.222 540.825, 202.450 539.796 C 204.273 538.269, 205.647 539.026, 207.812 542.750 C 209.012 544.813, 210.782 547.404, 211.746 548.508 C 214.347 551.487, 222.935 557.411, 227.500 559.375 C 229.700 560.322, 232.281 561.525, 233.236 562.048 C 234.191 562.572, 235.660 563, 236.500 563 C 237.340 563, 238.809 563.402, 239.764 563.894 C 242.706 565.410, 255.613 567.004, 264.269 566.921 C 272.776 566.839, 285.270 565.063, 286.585 563.749 C 286.996 563.337, 288.357 563, 289.608 563 C 290.859 563, 292.160 562.550, 292.500 562 C 292.840 561.450, 293.863 561, 294.774 561 C 296.473 561, 313.101 553.237, 314 552.024 C 314.275 551.653, 315.962 550.499, 317.750 549.459 C 319.538 548.419, 321 547.216, 321 546.784 C 321 546.353, 321.633 546, 322.407 546 C 325.385 546, 343.213 528.554, 348.465 520.500 C 352.029 515.035, 357 504.765, 357 502.868 C 357 501.841, 357.450 501, 358 501 C 358.550 501, 359.015 500.212, 359.033 499.250 C 359.070 497.225, 362.394 487.273, 363.353 486.314 C 363.709 485.958, 364 484.617, 364 483.333 C 364 482.050, 364.450 481, 365 481 C 365.550 481, 366.014 479.988, 366.032 478.750 C 366.049 477.512, 366.712 475.644, 367.503 474.598 L 368.943 472.695 369.334 503.598 C 369.705 532.941, 370.259 541.223, 372.003 543.500 C 372.424 544.050, 373.082 545.962, 373.464 547.750 C 373.846 549.538, 374.573 551, 375.079 551 C 375.586 551, 376 551.616, 376 552.368 C 376 554.555, 384.751 562.701, 389.644 565.070 C 397.997 569.114, 400.772 569.402, 434.500 569.735 L 467.500 570.062 472.868 567.281 C 479.382 563.906, 485.347 558.314, 488.132 552.971 C 489.271 550.787, 490.458 549, 490.772 549 C 491.085 549, 493.627 551.405, 496.421 554.345 C 499.214 557.284, 503.525 560.794, 506 562.144 C 513.591 566.283, 522.989 570, 525.866 570 C 527.370 570, 529.028 570.406, 529.550 570.902 C 530.073 571.398, 539.356 572.548, 550.179 573.459 L 569.858 575.115 584.179 574.025 C 592.056 573.426, 603.450 572.481, 609.500 571.924 C 615.550 571.368, 622.975 570.687, 626 570.412 C 629.025 570.136, 632.400 569.535, 633.500 569.076 C 635.233 568.353, 641.258 567.172, 652.500 565.350 C 654.150 565.082, 656.400 564.486, 657.500 564.023 C 658.600 563.561, 663.212 562.354, 667.748 561.341 C 672.284 560.329, 675.997 559.163, 675.998 558.750 C 675.999 558.337, 676.772 558, 677.717 558 C 680.227 558, 688 554.874, 688 553.864 C 688 553.389, 688.469 553, 689.042 553 C 690.267 553, 692.294 551.423, 695.319 548.117 C 696.519 546.806, 697.974 545.231, 698.552 544.617 C 700.275 542.789, 703 535.169, 703 532.180 C 703 530.651, 703.483 528.917, 704.074 528.326 C 704.809 527.591, 705 518.782, 704.681 500.376 C 704.212 473.332, 703.361 464.334, 700.858 459.929 C 699.112 456.857, 693.868 452.037, 692.250 452.016 C 691.563 452.007, 691 451.550, 691 451 C 691 450.450, 689.930 450, 688.622 450 C 687.315 450, 685.703 449.347, 685.040 448.548 L 683.836 447.097 684.858 443.798 C 687.961 433.783, 688.147 428.971, 687.632 372 C 687.347 340.375, 686.691 310.225, 686.176 305 C 685.240 295.506, 683.302 285.943, 682.124 285 C 681.781 284.725, 680.443 282.396, 679.150 279.824 C 676.815 275.178, 667.158 265, 665.084 265 C 664.488 265, 664 264.550, 664 264 C 664 263.450, 663.562 263, 663.027 263 C 662.492 263, 659.680 261.915, 656.777 260.590 C 651.614 258.231, 650.180 257.815, 641 256.006 C 634.951 254.814, 602.473 254.867, 592.500 256.085 C 581.571 257.420, 572.001 258.751, 569 259.355 C 567.625 259.632, 560.875 260.584, 554 261.471 C 547.125 262.358, 538.748 263.515, 535.385 264.042 C 517.946 266.774, 502.141 264.063, 493.920 256.929 C 492.589 255.774, 490.211 253.855, 488.636 252.665 C 487.061 251.474, 483.607 248.363, 480.960 245.750 C 478.313 243.137, 475.664 241, 475.074 241 C 474.483 241, 473.997 240.662, 473.994 240.250 C 473.977 238.315, 467.499 236.002, 462.169 236.028 L 456.500 236.056 452.660 238.962 C 449.241 241.550, 446 242.081, 446 240.054 C 446 239.651, 444.205 238.462, 442.011 237.411 C 439.818 236.360, 438.018 235.162, 438.011 234.750 C 438.005 234.338, 437.100 234, 436 234 C 434.900 234, 434 233.555, 434 233.012 C 434 232.468, 432.200 231.736, 430 231.384 C 427.800 231.032, 426 230.352, 426 229.872 C 426 229.392, 424.644 229, 422.986 229 C 421.329 229, 419.191 228.567, 418.236 228.039 C 416.308 226.971, 397.183 223.925, 393.710 224.132 C 392.494 224.204, 387.590 224.992, 382.812 225.882 M 388.500 245 C 388.108 245.635, 390.736 245.994, 395.691 245.985 C 401.102 245.974, 403.039 245.672, 402 245 C 400.020 243.720, 389.291 243.720, 388.500 245 M 380.200 247.200 C 378.759 248.641, 378.615 251, 379.969 251 C 380.501 251, 380.678 250.325, 380.362 249.500 C 379.997 248.550, 380.375 248, 381.393 248 C 382.277 248, 383 247.550, 383 247 C 383 245.644, 381.660 245.740, 380.200 247.200 M 417 248.893 C 417 249.502, 417.922 250, 419.050 250 C 420.177 250, 422.427 250.687, 424.050 251.526 C 425.672 252.365, 427 252.680, 427 252.227 C 427 251.773, 425.313 250.798, 423.250 250.060 C 421.188 249.321, 418.938 248.508, 418.250 248.252 C 417.563 247.996, 417 248.284, 417 248.893 M 383.635 260.500 C 384.686 265.258, 386.119 268.116, 385.390 264 C 385.049 262.075, 384.366 259.825, 383.871 259 C 383.284 258.020, 383.202 258.539, 383.635 260.500 M 134.070 266.750 C 134.180 277.327, 135.846 279.119, 135.930 268.750 C 135.972 263.536, 135.596 260, 135 260 C 134.425 260, 134.030 262.870, 134.070 266.750 M 464.445 262.362 C 464.119 263.661, 464.039 266.248, 464.266 268.112 L 464.680 271.500 464.840 266.809 C 464.928 264.229, 465.373 261.888, 465.828 261.606 C 466.283 261.325, 468.355 263.127, 470.431 265.611 C 472.507 268.095, 474.456 269.878, 474.761 269.573 C 475.066 269.268, 474.007 267.693, 472.408 266.074 C 470.808 264.455, 468.920 262.426, 468.211 261.565 C 466.389 259.355, 465.133 259.620, 464.445 262.362 M 312.250 267.742 C 315.962 267.934, 322.038 267.934, 325.750 267.742 C 329.462 267.549, 326.425 267.392, 319 267.392 C 311.575 267.392, 308.538 267.549, 312.250 267.742 M 288.500 269.047 C 287.229 269.624, 289.598 269.734, 295 269.349 C 299.675 269.016, 303.688 268.576, 303.917 268.372 C 304.822 267.564, 290.374 268.198, 288.500 269.047 M 333.083 268.372 C 333.313 268.576, 335.750 269.045, 338.500 269.413 C 342.051 269.888, 343.065 269.785, 342 269.057 C 340.652 268.134, 332.080 267.476, 333.083 268.372 M 276.500 271 C 276.151 271.565, 276.970 272, 278.382 272 C 279.757 272, 281.160 271.550, 281.500 271 C 281.849 270.435, 281.030 270, 279.618 270 C 278.243 270, 276.840 270.450, 276.500 271 M 265.199 272.986 C 263.384 273.416, 261.601 274.066, 261.237 274.430 C 260.341 275.326, 269.113 273.948, 271 272.897 L 272.500 272.061 270.500 272.133 C 269.400 272.172, 267.015 272.556, 265.199 272.986 M 449.044 272.128 C 448.951 273.450, 452.143 280.191, 452.631 279.702 C 452.913 279.420, 452.232 277.459, 451.116 275.344 C 450.001 273.230, 449.069 271.783, 449.044 272.128 M 598 276 L 596.500 276.969 600 276.885 C 601.925 276.839, 604.625 276.440, 606 276 L 608.500 275.199 604 275.115 C 601.525 275.069, 598.825 275.467, 598 276 M 581 278 L 578.500 278.801 582.500 278.885 C 584.700 278.931, 587.175 278.533, 588 278 L 589.500 277.031 586.500 277.115 C 584.850 277.161, 582.375 277.560, 581 278 M 165 280.454 C 169.078 282.078, 171.852 282.418, 170.450 281.121 C 169.928 280.638, 167.700 279.976, 165.500 279.651 L 161.500 279.059 165 280.454 M 237.500 279.735 C 235.300 279.954, 233.050 280.600, 232.500 281.170 C 231.400 282.310, 238.929 281.381, 242.500 279.936 C 244.583 279.093, 244.122 279.075, 237.500 279.735 M 565 279.742 C 561.975 279.947, 559.072 280.539, 558.550 281.057 C 557.295 282.302, 559.705 282.188, 569 280.563 C 576.480 279.255, 575.417 279.037, 565 279.742 M 465.015 283.191 C 465.007 285.221, 465.450 287.160, 466 287.500 C 467.290 288.297, 467.290 282.996, 466 281 L 465.031 279.500 465.015 283.191 M 174.500 283 C 174.840 283.550, 176.779 283.968, 178.809 283.930 L 182.500 283.859 180.500 283 C 177.692 281.793, 173.754 281.793, 174.500 283 M 218 283 L 216.500 283.969 220.500 283.969 C 222.700 283.969, 225.175 283.533, 226 283 L 227.500 282.031 223.500 282.031 C 221.300 282.031, 218.825 282.467, 218 283 M 388.753 326.265 C 388.892 350.506, 389.230 370.563, 389.503 370.836 C 389.776 371.110, 390 351.485, 390 327.226 C 390 302.966, 389.663 282.909, 389.250 282.654 C 388.837 282.399, 388.614 302.024, 388.753 326.265 M 543.500 283 C 543.133 283.594, 544.303 284, 546.382 284 C 548.307 284, 550.160 283.550, 550.500 283 C 550.867 282.406, 549.697 282, 547.618 282 C 545.693 282, 543.840 282.450, 543.500 283 M 136.015 287.191 C 136.007 289.221, 136.450 291.160, 137 291.500 C 138.290 292.297, 138.290 286.996, 137 285 L 136.031 283.500 136.015 287.191 M 507.743 285.164 C 510.106 286.099, 525.398 286.042, 531 285.077 C 534.031 284.555, 530.682 284.329, 520.743 284.385 C 512.627 284.431, 506.777 284.782, 507.743 285.164 M 467.534 295.500 C 467.891 297.700, 468.601 300.175, 469.112 301 C 469.723 301.987, 469.819 301.131, 469.392 298.500 C 469.035 296.300, 468.325 293.825, 467.814 293 C 467.203 292.013, 467.107 292.869, 467.534 295.500 M 647.725 296.500 C 648.151 299.250, 648.500 328.115, 648.500 360.645 L 648.500 419.791 646.595 421.895 C 645.547 423.053, 644.085 424, 643.345 424 C 642.605 424, 642 424.466, 642 425.035 C 642 426.634, 645.501 424.450, 647.971 421.309 L 650.098 418.606 649.799 357.053 L 649.500 295.500 648.225 293.500 L 646.951 291.500 647.725 296.500 M 374.336 311 C 374.336 315.125, 374.513 316.813, 374.728 314.750 C 374.944 312.688, 374.944 309.313, 374.728 307.250 C 374.513 305.188, 374.336 306.875, 374.336 311 M 145.767 313.500 C 147.262 315.975, 148.809 318, 149.204 318 C 150.136 318, 144.732 309.073, 143.775 309.032 C 143.376 309.014, 144.272 311.025, 145.767 313.500 M 472.647 310.750 C 472.900 311.712, 474.037 313.625, 475.172 315 L 477.237 317.500 475.619 314.785 C 474.728 313.292, 474 311.380, 474 310.535 C 474 309.691, 473.592 309, 473.094 309 C 472.595 309, 472.394 309.788, 472.647 310.750 M 288.140 321.147 C 283.534 322.473, 284.624 323.108, 289.528 321.957 C 294.609 320.764, 302 321.746, 302 323.614 C 302 324.376, 302.488 325, 303.083 325 C 304.896 325, 303.494 322.578, 300.921 321.265 C 298.098 319.824, 292.903 319.777, 288.140 321.147 M 479.584 322.129 C 481.172 324.953, 487.534 331.545, 491.594 334.574 C 493.742 336.177, 495.725 337.716, 496 337.994 C 497.117 339.124, 504.284 342.049, 504.762 341.571 C 505.046 341.288, 504.056 340.592, 502.563 340.024 C 497.942 338.267, 490.763 332.891, 484.584 326.561 C 481.330 323.227, 479.080 321.233, 479.584 322.129 M 372.649 325.750 C 372.319 327.262, 371.751 329.625, 371.388 331 C 370.937 332.710, 371.054 333.184, 371.761 332.500 C 372.329 331.950, 373.105 329.587, 373.485 327.250 C 374.248 322.556, 373.601 321.394, 372.649 325.750 M 302.634 335.107 C 302.406 335.873, 301.448 338.665, 300.504 341.311 C 299.560 343.957, 298.997 346.330, 299.251 346.585 C 299.506 346.839, 300.717 344.300, 301.941 340.941 C 303.166 337.582, 303.916 334.582, 303.607 334.274 C 303.299 333.966, 302.861 334.341, 302.634 335.107 M 176 336 C 177.976 337.277, 181.289 337.277, 180.500 336 C 180.160 335.450, 178.671 335.007, 177.191 335.015 L 174.500 335.031 176 336 M 189.500 337.926 C 190.600 338.439, 194.088 338.891, 197.250 338.930 C 200.586 338.970, 203 339.445, 203 340.059 C 203 340.641, 203.489 340.816, 204.087 340.446 C 206.230 339.122, 203.369 338.168, 195.500 337.585 C 190.217 337.194, 188.179 337.310, 189.500 337.926 M 568 340.983 C 566.464 341.465, 569.220 341.716, 575.147 341.634 C 580.452 341.560, 584.588 341.163, 584.338 340.750 C 583.749 339.782, 571.263 339.960, 568 340.983 M 265.718 346.196 C 264.890 348.563, 263.891 351.288, 263.499 352.250 C 263.107 353.212, 263.172 353.994, 263.643 353.986 C 264.575 353.971, 268.338 343.004, 267.647 342.314 C 267.415 342.082, 266.547 343.828, 265.718 346.196 M 544.500 343 L 541.500 343.763 547.500 343.782 C 550.800 343.792, 554.625 343.440, 556 343 L 558.500 342.199 553 342.218 C 549.975 342.228, 546.150 342.580, 544.500 343 M 585 357 C 585 366.157, 585.351 370.901, 586 370.500 C 586.583 370.140, 587 364.509, 587 357 C 587 349.491, 586.583 343.860, 586 343.500 C 585.351 343.099, 585 347.843, 585 357 M 521.280 344.736 C 523.909 344.943, 527.959 344.940, 530.280 344.731 C 532.601 344.521, 530.450 344.352, 525.500 344.355 C 520.550 344.358, 518.651 344.530, 521.280 344.736 M 295.116 357.098 C 293.772 360.952, 293.769 361, 294.887 361 C 295.689 361, 297.130 354.916, 296.497 354.199 C 296.351 354.033, 295.729 355.338, 295.116 357.098 M 194.376 363.607 C 194.007 364.648, 193.090 367.032, 192.339 368.904 C 191.588 370.775, 191.205 372.538, 191.487 372.820 C 192.156 373.489, 192.221 373.363, 194.211 367.536 C 195.143 364.806, 195.713 362.379, 195.476 362.143 C 195.240 361.907, 194.745 362.566, 194.376 363.607 M 290.426 370.607 C 290.084 371.648, 289.155 374.244, 288.360 376.375 C 287.566 378.506, 287.150 380.483, 287.435 380.768 C 287.720 381.053, 288.233 380.434, 288.574 379.393 C 288.916 378.352, 289.845 375.756, 290.640 373.625 C 291.434 371.494, 291.850 369.517, 291.565 369.232 C 291.280 368.947, 290.767 369.566, 290.426 370.607 M 480.667 370.667 C 479.771 371.562, 479.948 389.009, 480.877 391.373 C 481.281 392.403, 481.587 388.019, 481.556 381.629 C 481.525 375.240, 481.462 370.010, 481.417 370.006 C 481.371 370.003, 481.033 370.300, 480.667 370.667 M 492.876 375.083 C 498.890 377.752, 502.492 378.604, 501.590 377.146 C 501.201 376.516, 500.063 376, 499.063 376 C 498.063 376, 495.629 375.325, 493.654 374.500 C 488.402 372.305, 487.738 372.803, 492.876 375.083 M 573.500 374.569 L 565.500 375.886 571.897 375.443 C 575.415 375.199, 579.352 375, 580.647 375 C 581.941 375, 583 374.550, 583 374 C 583 373.450, 582.663 373.057, 582.250 373.126 C 581.837 373.195, 577.900 373.844, 573.500 374.569 M 187.165 382.762 C 184.052 391.746, 183.549 393.643, 184.519 392.750 C 184.967 392.337, 186.336 389.187, 187.560 385.750 C 188.785 382.312, 190.108 378.712, 190.500 377.750 C 190.893 376.788, 190.828 376.006, 190.357 376.012 C 189.886 376.019, 188.449 379.057, 187.165 382.762 M 549 377.056 C 547.469 377.581, 549.988 377.689, 555.500 377.336 C 560.450 377.019, 564.688 376.588, 564.917 376.380 C 565.755 375.616, 551.424 376.225, 549 377.056 M 507.500 379 C 510.061 380.100, 527.266 380.140, 532.500 379.057 C 535.296 378.479, 531.835 378.217, 521 378.185 C 511.512 378.158, 506.276 378.474, 507.500 379 M 283.697 389.750 C 282.675 391.572, 281.916 396.439, 282.800 395.500 C 283.836 394.400, 285.313 389, 284.578 389 C 284.325 389, 283.929 389.337, 283.697 389.750 M 182.376 396.607 C 182.007 397.648, 181.090 400.032, 180.339 401.904 C 179.588 403.775, 179.194 405.527, 179.463 405.797 C 179.733 406.066, 180.255 405.434, 180.624 404.393 C 180.993 403.352, 181.910 400.968, 182.661 399.096 C 183.412 397.225, 183.806 395.473, 183.537 395.203 C 183.267 394.934, 182.745 395.566, 182.376 396.607 M 482.031 445 C 482.031 475.905, 482.407 496.082, 483 497 C 483.633 497.979, 483.969 480.968, 483.969 448 C 483.969 417.095, 483.593 396.918, 483 396 C 482.367 395.021, 482.031 412.032, 482.031 445 M 247.697 396.750 C 246.675 398.572, 245.916 403.439, 246.800 402.500 C 247.836 401.400, 249.313 396, 248.578 396 C 248.325 396, 247.929 396.337, 247.697 396.750 M 278.426 405.607 C 278.084 406.648, 277.173 409.197, 276.402 411.270 C 274.731 415.764, 274.711 416, 276 416 C 276.550 416, 277 415.155, 277 414.122 C 277 413.089, 277.701 410.566, 278.559 408.514 C 279.416 406.462, 279.876 404.543, 279.582 404.249 C 279.288 403.955, 278.767 404.566, 278.426 405.607 M 343.777 411.622 C 343.502 412.105, 343.008 413.850, 342.679 415.500 L 342.082 418.500 343.496 415.500 L 344.910 412.500 344.955 416.191 C 344.980 418.221, 345.512 420.199, 346.138 420.586 L 347.277 421.289 346.547 417.395 C 345.701 412.878, 344.494 410.362, 343.777 411.622 M 175 415.918 C 175 416.973, 174.741 418.661, 174.424 419.668 L 173.849 421.500 174.804 420 C 176.491 417.348, 177.196 414, 176.067 414 C 175.480 414, 175 414.863, 175 415.918 M 356 429 C 356.825 429.533, 364.597 429.976, 373.272 429.985 L 389.043 430 388.969 475.614 C 388.928 500.702, 389.144 521.477, 389.447 521.781 C 389.751 522.085, 390 501.381, 390 475.774 L 390 429.214 388.418 428.607 C 385.651 427.545, 354.336 427.925, 356 429 M 616.603 429.099 C 612.259 429.557, 608.209 430.166, 607.603 430.453 C 605.970 431.224, 624.117 429.946, 628.089 429.009 L 631.500 428.205 628 428.235 C 626.075 428.252, 620.946 428.641, 616.603 429.099 M 235.612 431.107 C 234.479 434.729, 233.139 438.662, 232.495 440.250 C 232.105 441.212, 232.180 442, 232.662 442 C 233.632 442, 237.238 430.904, 236.506 430.173 C 236.254 429.920, 235.851 430.341, 235.612 431.107 M 336.201 433.321 C 334.774 437.266, 334.664 438.757, 335.895 437.450 C 336.817 436.470, 338.455 430, 337.780 430 C 337.572 430, 336.861 431.494, 336.201 433.321 M 587.500 432 L 584.500 432.763 590.500 432.763 C 593.800 432.763, 597.850 432.420, 599.500 432 L 602.500 431.237 596.500 431.237 C 593.200 431.237, 589.150 431.580, 587.500 432 M 547.667 433.667 C 547.300 434.033, 547 442.753, 547 453.044 L 547 471.755 548.750 473.079 L 550.500 474.404 549.250 473.002 L 548 471.600 548 453.300 L 548 435 556.250 434.912 C 560.788 434.864, 566.750 434.474, 569.500 434.046 L 574.500 433.267 561.417 433.134 C 554.221 433.060, 548.033 433.300, 547.667 433.667 M 229.965 447.250 C 229.945 448.488, 229.286 450.625, 228.500 452 C 227.714 453.375, 227.087 455.175, 227.106 456 C 227.125 456.825, 227.944 455.698, 228.925 453.496 C 231.678 447.317, 232.262 445, 231.067 445 C 230.480 445, 229.984 446.012, 229.965 447.250 M 651.500 458.797 C 644.878 460.567, 644.428 460.761, 645.195 461.528 C 645.485 461.818, 647.023 461.561, 648.611 460.956 C 650.200 460.351, 653.713 459.436, 656.417 458.922 L 661.334 457.989 663.667 459.517 L 666 461.046 666 486.089 C 666 501.439, 665.599 511.880, 664.965 513.066 C 664.381 514.156, 664.330 515, 664.848 515 C 665.353 515, 666.038 513.987, 666.370 512.750 C 667.236 509.518, 667.113 461.715, 666.235 460.400 C 665.152 458.778, 661.397 456.986, 659.316 457.097 C 658.317 457.150, 654.800 457.915, 651.500 458.797 M 259.697 459.750 C 258.675 461.572, 257.916 466.439, 258.800 465.500 C 259.836 464.400, 261.313 459, 260.578 459 C 260.325 459, 259.929 459.337, 259.697 459.750 M 326.821 459.549 C 326.522 460.072, 325.988 461.850, 325.635 463.500 L 324.994 466.500 326.560 463.690 C 327.422 462.145, 327.956 460.367, 327.746 459.739 C 327.527 459.081, 327.136 459.001, 326.821 459.549 M 157.361 463.642 C 156.396 465.764, 155.432 467.837, 155.219 468.250 C 155.007 468.663, 155.208 468.995, 155.667 468.990 C 156.627 468.978, 160.218 460.884, 159.556 460.223 C 159.315 459.981, 158.327 461.520, 157.361 463.642 M 221.876 467.533 C 220.984 469.440, 220.563 471, 220.941 471 C 221.320 471, 222.381 469.425, 223.299 467.500 C 224.217 465.575, 224.637 464.015, 224.234 464.033 C 223.830 464.050, 222.769 465.625, 221.876 467.533 M 629.500 464.727 C 627.850 464.962, 626.050 465.604, 625.500 466.155 C 624.335 467.321, 631.595 466.251, 634 464.902 L 635.500 464.061 634 464.180 C 633.175 464.246, 631.150 464.492, 629.500 464.727 M 603.500 470.107 C 594.142 471.453, 593.753 471.929, 602.500 471.328 C 606.900 471.026, 610.928 470.379, 611.450 469.890 C 612.538 468.871, 611.989 468.886, 603.500 470.107 M 153 472.417 C 153 473.196, 152.662 473.983, 152.250 474.167 C 151.163 474.650, 147.960 481, 148.804 481 C 149.465 481, 155 472.477, 155 471.459 C 155 471.207, 154.550 471, 154 471 C 153.450 471, 153 471.637, 153 472.417 M 576 473 L 573.500 473.801 578.500 473.801 C 581.250 473.802, 585.975 473.460, 589 473.042 L 594.500 472.282 586.500 472.240 C 582.100 472.218, 577.375 472.560, 576 473 M 210.688 482.173 C 209.141 483.843, 208.129 485.462, 208.438 485.771 C 208.747 486.080, 209.113 486.144, 209.250 485.912 C 209.387 485.680, 210.822 484.030, 212.437 482.245 C 214.052 480.460, 214.952 479.031, 214.437 479.068 C 213.922 479.106, 212.235 480.503, 210.688 482.173 M 319.028 481.611 C 318.462 483.200, 317.546 485.288, 316.991 486.250 C 316.437 487.212, 316.388 488, 316.883 488 C 317.946 488, 321.318 479.985, 320.570 479.236 C 320.287 478.954, 319.593 480.023, 319.028 481.611 M 248.633 487.750 C 248.303 488.712, 247.590 490.512, 247.049 491.750 C 245.567 495.137, 246.534 494.455, 248.901 490.443 C 251.252 486.459, 251.377 486, 250.117 486 C 249.631 486, 248.963 486.788, 248.633 487.750 M 138.176 493.176 C 135.805 495.388, 134.055 497.388, 134.287 497.620 C 134.519 497.852, 136.640 496.223, 139 494 C 141.360 491.777, 143.111 489.777, 142.890 489.556 C 142.669 489.335, 140.548 490.964, 138.176 493.176 M 129.328 500.310 L 127.157 502.500 128.536 503.750 C 130.431 505.467, 131.517 505.328, 130.046 503.556 L 128.848 502.112 130.924 500.815 C 132.066 500.102, 133 499.177, 133 498.759 C 133 497.443, 131.576 498.044, 129.328 500.310 M 484.545 506 C 484.911 507.925, 485.613 509.928, 486.105 510.450 C 486.597 510.972, 487 512.210, 487 513.200 C 487 514.190, 487.408 515, 487.906 515 C 488.989 515, 488.136 511.202, 486.879 510.425 C 486.396 510.127, 485.993 508.896, 485.985 507.691 C 485.976 506.486, 485.499 504.825, 484.924 504 L 483.879 502.500 484.545 506 M 235.214 509.714 C 233.508 511.767, 232.323 513.656, 232.579 513.913 C 232.836 514.169, 233.721 513.416, 234.545 512.239 C 235.370 511.062, 236.763 509.380, 237.641 508.502 C 238.520 507.623, 239.031 506.697, 238.777 506.444 C 238.524 506.190, 236.920 507.662, 235.214 509.714 M 145 509 C 148.136 510.004, 155.553 510.004, 159.500 509 C 161.476 508.497, 159.087 508.230, 152.500 508.218 C 146.103 508.206, 143.401 508.488, 145 509 M 228.429 516.288 C 227.840 516.955, 225.815 518.762, 223.929 520.305 L 220.500 523.110 223.810 521.305 C 227.320 519.391, 231.982 514.974, 230.424 515.038 C 229.916 515.059, 229.018 515.621, 228.429 516.288 M 390.571 526 C 390.944 527.375, 391.305 528.524, 391.374 528.553 C 391.443 528.582, 392.777 529.405, 394.337 530.383 C 395.897 531.360, 397.418 531.916, 397.716 531.617 C 398.014 531.319, 397.159 530.574, 395.815 529.961 C 394.471 529.349, 392.589 527.645, 391.632 526.174 L 389.894 523.500 390.571 526 M 641.250 525.119 C 639.462 525.635, 638 526.258, 638 526.504 C 638 527.138, 644.205 525.889, 646 524.893 L 647.500 524.061 646 524.121 C 645.175 524.153, 643.038 524.603, 641.250 525.119 M 258.500 528 C 258.149 528.567, 258.990 529, 260.441 529 C 261.848 529, 263 528.550, 263 528 C 263 527.450, 262.127 527, 261.059 527 C 259.991 527, 258.840 527.450, 258.500 528 M 242.653 530.094 C 244.583 530.653, 246.717 530.642, 248.153 530.067 L 250.500 529.127 245 529.154 L 239.500 529.180 242.653 530.094 M 619 530 L 616.500 530.801 620.191 530.900 C 622.221 530.955, 624.160 530.550, 624.500 530 C 625.215 528.843, 622.612 528.843, 619 530 M 400.500 533 C 401.312 534.313, 442.968 534.313, 445 533 C 445.992 532.359, 438.610 532.025, 423.191 532.015 C 407.902 532.005, 400.095 532.344, 400.500 533 M 601 533 L 599.500 533.969 602.500 533.914 C 604.150 533.884, 606.400 533.473, 607.500 533 L 609.500 532.141 606 532.086 C 604.075 532.055, 601.825 532.467, 601 533 M 520.500 535 C 520.840 535.550, 522.779 535.968, 524.809 535.930 L 528.500 535.859 526.500 535 C 523.692 533.793, 519.754 533.793, 520.500 535 M 582.500 535 L 579.500 535.763 585.191 535.882 C 588.321 535.947, 591.160 535.550, 591.500 535 C 592.214 533.846, 587.037 533.846, 582.500 535 M 543.250 536.746 C 548.612 536.925, 557.388 536.925, 562.750 536.746 C 568.112 536.566, 563.725 536.419, 553 536.419 C 542.275 536.419, 537.888 536.566, 543.250 536.746" stroke="none" fill="#7c5bde" fill-rule="evenodd"/><path d="M 383 246.944 C 383 247.525, 382.295 248, 381.433 248 L 379.865 248 380.567 250.250 C 380.954 251.488, 381.592 252.725, 381.986 253 C 382.380 253.275, 382.971 254.625, 383.300 256 C 385.460 265.024, 386.596 268.929, 387.251 269.584 C 387.663 269.996, 388 272.932, 388 276.108 C 388 279.284, 388.450 282.160, 389 282.500 C 389.642 282.897, 390 298.844, 390 327.059 L 390 371 374.070 371 L 358.140 371 359.062 367.750 C 360.032 364.336, 361.504 360.189, 363.235 356 C 365.212 351.215, 365.841 349.467, 367.552 344 C 368.499 340.975, 369.606 337.600, 370.012 336.500 C 370.418 335.400, 371.538 331.233, 372.501 327.240 L 374.251 319.980 373.733 308.740 C 373.252 298.291, 371.627 291, 369.781 291 C 369.351 291, 369 290.111, 369 289.024 C 369 286.858, 360.152 277, 358.209 277 C 357.544 277, 356.998 276.663, 356.996 276.250 C 356.994 275.837, 354.857 274.672, 352.246 273.661 C 349.636 272.649, 346.600 271.441, 345.500 270.976 C 341.602 269.329, 330.198 268, 319.918 267.995 C 307.660 267.989, 284.363 269.838, 281.500 271.044 C 280.400 271.507, 277.700 272.105, 275.500 272.372 C 268.387 273.236, 259.545 275.067, 257.764 276.046 C 256.809 276.571, 255.115 277, 254 277 C 252.885 277, 251.191 277.402, 250.236 277.893 C 248.158 278.963, 240.063 280.864, 231.630 282.264 C 222.924 283.708, 175.944 284.344, 174.634 283.034 C 174.065 282.465, 172.717 282, 171.638 282 C 169.507 282, 158.813 278.885, 158 278.027 C 157.725 277.737, 155.925 276.631, 154 275.568 C 152.075 274.506, 147.447 270.568, 143.716 266.818 C 139.985 263.068, 136.696 260, 136.409 260 C 135.773 260, 136.603 282.343, 137.523 290 C 137.887 293.025, 138.593 295.928, 139.092 296.450 C 139.591 296.973, 140.003 298.098, 140.006 298.950 C 140.010 299.803, 140.685 301.789, 141.506 303.364 C 142.328 304.940, 143 306.815, 143 307.531 C 143 308.247, 143.338 308.983, 143.750 309.167 C 144.544 309.519, 150 317.616, 150 318.441 C 150 319.202, 158.318 327, 159.130 327 C 159.530 327, 160.452 327.563, 161.179 328.250 C 163.799 330.729, 174.167 335, 177.563 335 C 178.838 335, 180.117 335.380, 180.404 335.845 C 180.692 336.310, 185.922 336.976, 192.027 337.325 C 203.802 337.999, 205.653 338.457, 204.201 340.339 C 203.709 340.978, 202.449 344.309, 201.403 347.741 C 200.356 351.174, 199.162 353.987, 198.750 353.991 C 198.338 353.996, 198 355.098, 198 356.441 C 198 357.784, 197.658 359.094, 197.239 359.352 C 196.820 359.611, 195.583 362.787, 194.489 366.411 C 193.395 370.035, 192.162 373, 191.750 373 C 191.338 373, 191 373.778, 191 374.729 C 191 376.226, 187.554 386.430, 184.997 392.500 C 184.534 393.600, 183.371 396.750, 182.412 399.500 C 181.454 402.250, 180.294 404.928, 179.835 405.450 C 179.376 405.973, 179 407.216, 179 408.214 C 179 409.211, 178.590 410.809, 178.089 411.764 C 177.587 412.719, 176.427 415.750, 175.511 418.500 C 174.595 421.250, 173.483 424.400, 173.042 425.500 C 172.601 426.600, 171.464 429.525, 170.517 432 C 169.570 434.475, 168.391 437.281, 167.897 438.236 C 167.404 439.191, 167 440.852, 167 441.927 C 167 443.002, 166.550 444.160, 166 444.500 C 165.450 444.840, 164.997 445.879, 164.994 446.809 C 164.990 447.739, 164.315 449.789, 163.494 451.364 C 162.672 452.940, 162 454.768, 162 455.427 C 162 456.086, 160.875 458.958, 159.500 461.808 C 158.125 464.658, 157 467.442, 157 467.995 C 157 468.548, 156.550 469, 156 469 C 155.450 469, 155 469.684, 155 470.520 C 155 472.220, 150.173 480.315, 148.851 480.833 C 148.383 481.017, 148 481.784, 148 482.538 C 148 483.292, 146.875 485.034, 145.500 486.409 C 144.125 487.784, 143 489.192, 143 489.538 C 143 490.352, 137.379 495.694, 132.614 499.407 L 128.885 502.313 130.192 503.529 C 133.264 506.384, 141.407 508, 152.723 508 C 163.936 508, 177 505.782, 177 503.878 C 177 503.395, 177.858 503, 178.908 503 C 180.958 503, 191.281 498.015, 191.833 496.759 C 192.017 496.342, 192.649 496, 193.239 496 C 193.829 496, 195.786 494.875, 197.589 493.500 C 199.392 492.125, 201.108 491, 201.404 491 C 201.699 491, 204.857 488.126, 208.421 484.614 C 215.200 477.935, 223 467.620, 223 465.334 C 223 464.600, 223.450 464, 224 464 C 224.550 464, 225 463.319, 225 462.486 C 225 461.654, 225.390 460.191, 225.866 459.236 C 227.270 456.420, 229.191 450.708, 229.728 447.750 C 230.002 446.238, 230.626 445, 231.113 445 C 231.601 445, 232 444.228, 232 443.283 C 232 441.092, 235.677 430.559, 238.117 425.764 C 238.603 424.809, 239 423.361, 239 422.547 C 239 421.734, 239.737 419.365, 240.639 417.284 C 242.689 412.548, 243.304 410.851, 245.448 404 C 246.395 400.975, 247.559 397.600, 248.035 396.500 C 248.510 395.400, 249.582 392.475, 250.417 390 C 253.259 381.575, 254.628 378.038, 255.315 377.352 C 255.692 376.975, 256 375.707, 256 374.533 C 256 373.360, 256.358 371.973, 256.795 371.450 C 257.232 370.928, 258.436 367.800, 259.471 364.500 C 260.506 361.200, 261.724 358.072, 262.177 357.550 C 262.630 357.027, 263 355.912, 263 355.071 C 263 353.725, 266.652 343.049, 269.011 337.500 C 269.478 336.400, 270.378 333.808, 271.011 331.741 C 272.446 327.050, 274.441 325, 277.571 325 C 278.907 325, 280 324.550, 280 324 C 280 323.450, 280.703 323, 281.562 323 C 282.421 323, 285.362 322.268, 288.098 321.373 C 293.401 319.639, 300.019 319.941, 302.539 322.033 C 305.856 324.785, 303.249 341.380, 297.957 351.206 C 297.451 352.145, 296.747 354.732, 296.391 356.956 C 296.035 359.180, 295.352 361, 294.872 361 C 294.392 361, 294 362.125, 294 363.500 C 294 364.875, 293.550 366, 293 366 C 292.450 366, 292 366.891, 292 367.980 C 292 369.712, 290.821 373.424, 288.023 380.500 C 287.588 381.600, 286.413 385.200, 285.411 388.500 C 284.409 391.800, 283.232 394.928, 282.795 395.450 C 282.358 395.972, 282 397.360, 282 398.533 C 282 399.707, 281.709 400.958, 281.353 401.314 C 280.394 402.273, 277.070 412.225, 277.033 414.250 C 277.015 415.212, 276.550 416, 276 416 C 275.450 416, 275 416.906, 275 418.014 C 275 419.121, 274.590 420.809, 274.089 421.764 C 273.587 422.719, 272.427 425.750, 271.511 428.500 C 270.595 431.250, 269.482 434.400, 269.038 435.500 C 268.595 436.600, 267.411 440.200, 266.406 443.500 C 265.402 446.800, 264.299 449.950, 263.954 450.500 C 263.610 451.050, 262.553 454.200, 261.605 457.500 C 260.658 460.800, 259.459 464.281, 258.941 465.236 C 258.424 466.191, 258 467.879, 258 468.986 C 258 470.094, 257.550 471, 257 471 C 256.450 471, 256 471.902, 256 473.005 C 256 474.108, 254.875 477.342, 253.500 480.192 C 252.125 483.042, 251 485.762, 251 486.235 C 251 486.709, 249.531 489.437, 247.735 492.298 C 245.939 495.159, 243.587 499.188, 242.507 501.250 C 241.428 503.313, 240.198 505, 239.773 505 C 239.348 505, 239 505.482, 239 506.071 C 239 506.661, 238.298 507.898, 237.440 508.821 C 231.288 515.444, 227.115 519.379, 224.750 520.790 C 223.238 521.693, 222 522.751, 222 523.142 C 222 524.271, 228.079 527, 230.595 527 C 231.853 527, 233.160 527.450, 233.500 528 C 233.856 528.576, 239.157 529, 246 529 C 252.843 529, 258.144 528.576, 258.500 528 C 258.840 527.450, 260.244 527, 261.621 527 C 264.479 527, 274.024 524.139, 275.450 522.855 C 275.973 522.385, 277.210 522, 278.200 522 C 279.190 522, 280 521.649, 280 521.219 C 280 520.790, 281.238 519.921, 282.750 519.289 C 285.461 518.157, 291.025 514.975, 292 514 C 292.275 513.725, 294.608 511.807, 297.184 509.737 C 302.943 505.111, 311 497.125, 311 496.043 C 311 495.604, 311.631 494.721, 312.403 494.080 C 313.175 493.440, 315.004 490.347, 316.467 487.208 C 317.930 484.069, 319.549 480.719, 320.064 479.764 C 320.579 478.809, 321 477.121, 321 476.014 C 321 474.906, 321.450 474, 322 474 C 322.550 474, 323 473.228, 323 472.283 C 323 470.734, 324.888 464.741, 327.028 459.500 C 327.477 458.400, 328.595 455.250, 329.511 452.500 C 330.427 449.750, 331.587 446.719, 332.089 445.764 C 332.590 444.809, 333 443.121, 333 442.014 C 333 440.906, 333.450 440, 334 440 C 334.550 440, 335 439.273, 335 438.384 C 335 436.150, 338.331 426.575, 339.250 426.167 C 339.663 425.983, 340.015 425.083, 340.033 424.167 C 340.069 422.285, 343.399 412.268, 344.280 411.387 C 344.918 410.749, 346.986 417.502, 346.994 420.250 C 346.997 421.212, 347.420 422, 347.933 422 C 348.446 422, 349.129 422.832, 349.452 423.848 C 350.528 427.238, 354.476 428, 370.965 428 C 379.694 428, 387.548 428.273, 388.418 428.607 L 390 429.214 390 476.203 L 390 523.191 391.586 525.877 C 392.459 527.354, 394.520 529.336, 396.167 530.281 L 399.162 532 423.158 532 L 447.154 532 450.077 529.077 C 451.685 527.469, 453 525.669, 453 525.077 C 453 524.485, 453.450 524, 454 524 C 454.661 524, 455 483.833, 455 405.500 C 455 327.167, 454.661 287, 454 287 C 453.450 287, 453 285.734, 453 284.187 C 453 281.201, 449.189 272.519, 446.257 268.827 C 441.633 263.004, 434.943 257.080, 431 255.317 C 430.175 254.948, 429.275 254.388, 429 254.073 C 427.964 252.886, 420.854 250, 418.966 250 C 417.885 250, 417 249.597, 417 249.105 C 417 247.774, 410.030 246.870, 395.750 246.352 C 387.177 246.041, 383 246.235, 383 246.944 M 465.433 262.314 C 463.640 266.986, 468.250 300.418, 471.105 303.450 C 471.597 303.972, 472 305.435, 472 306.700 C 472 307.965, 472.450 309, 473 309 C 473.550 309, 474 309.639, 474 310.419 C 474 312.203, 477.244 317.985, 478.250 317.994 C 478.663 317.997, 479 318.624, 479 319.386 C 479 321.275, 489.465 331.922, 495 335.664 C 500.012 339.053, 504.988 341.429, 509.500 342.589 C 514.113 343.775, 540.937 343.481, 556 342.080 C 563.425 341.390, 572.618 340.599, 576.429 340.323 L 583.357 339.822 585.156 342.161 L 586.956 344.500 586.977 357 L 586.998 369.500 584.749 372.076 L 582.500 374.653 571 375.897 C 538.824 379.379, 512.741 380.293, 503 378.281 C 497.925 377.232, 488.911 374.083, 484.764 371.910 C 483.809 371.409, 482.504 371, 481.865 371 L 480.703 371 481.264 382.403 C 481.573 388.675, 482.315 394.720, 482.913 395.837 C 483.655 397.225, 484 414.268, 484 449.613 C 484 501.667, 484.098 503.328, 487.654 511.651 C 488.394 513.384, 489 515.067, 489 515.390 C 489 516.193, 491.836 519.584, 495.814 523.535 C 499.612 527.307, 508.878 532, 512.527 532 C 513.887 532, 515 532.396, 515 532.880 C 515 533.364, 517.813 534.106, 521.250 534.529 C 530.960 535.724, 579.348 535.521, 590.500 534.238 C 606.688 532.376, 614.589 531.208, 618.668 530.075 C 620.776 529.490, 623.872 529.009, 625.550 529.006 C 627.227 529.003, 629.027 528.596, 629.550 528.102 C 630.072 527.609, 632.300 526.986, 634.500 526.718 C 636.700 526.450, 640.975 525.461, 644 524.520 C 647.025 523.579, 650.737 522.576, 652.250 522.291 C 653.763 522.006, 655 521.374, 655 520.887 C 655 520.399, 655.639 520, 656.419 520 C 659.271 520, 663.767 516.534, 664.869 513.486 C 665.595 511.477, 666 501.534, 666 485.702 L 666 461.046 663.672 459.521 L 661.345 457.996 656.922 458.878 C 651.258 460.007, 643.071 462.059, 640.500 462.995 C 634.730 465.095, 630.646 466.136, 626.043 466.681 C 623.237 467.014, 620.703 467.671, 620.412 468.143 C 620.120 468.614, 618.327 469, 616.427 469 C 614.527 469, 612.191 469.421, 611.236 469.935 C 608.093 471.628, 580.795 474.030, 564.872 474.015 L 549.245 474 548.100 472.620 C 547.307 471.665, 547.039 465.442, 547.227 452.370 L 547.500 433.500 567 432.869 C 598.346 431.854, 642 427.210, 642 424.891 C 642 424.401, 642.605 424, 643.345 424 C 644.085 424, 645.547 423.053, 646.595 421.896 L 648.500 419.791 648.828 363.646 C 649.147 308.872, 648.426 291, 645.896 291 C 645.403 291, 645 290.100, 645 289 C 645 287.900, 644.550 287, 644 287 C 643.450 287, 643 286.489, 643 285.865 C 643 284.222, 638.522 280.322, 634.748 278.676 C 627.200 275.384, 623.219 274.744, 614.350 275.400 C 599.488 276.498, 579.822 278.786, 567 280.909 C 563.425 281.501, 558.389 281.988, 555.809 281.992 C 553.229 281.997, 550.882 282.381, 550.594 282.847 C 549.931 283.921, 531.599 285.372, 518.500 285.388 C 505.492 285.404, 500.962 284.530, 492.669 280.407 C 491.112 279.633, 489.199 279, 488.419 279 C 487.639 279, 487 278.550, 487 278 C 487 277.450, 486.325 277, 485.500 277 C 484.675 277, 484 276.550, 484 276 C 484 275.450, 483.423 275, 482.717 275 C 480.954 275, 476.408 271.447, 470.759 265.653 L 466.017 260.791 465.433 262.314" stroke="none" fill="#fbfbfb" fill-rule="evenodd"/></svg>