<?xml version="1.0" standalone="no"?>
<!DOCTYPE svg PUBLIC "-//W3C//DTD SVG 20010904//EN"
 "http://www.w3.org/TR/2001/REC-SVG-20010904/DTD/svg10.dtd">
<svg version="1.0" xmlns="http://www.w3.org/2000/svg"
 width="800.000000pt" height="800.000000pt" viewBox="0 0 800.000000 800.000000"
 preserveAspectRatio="xMidYMid meet">

<g transform="translate(0.000000,800.000000) scale(0.100000,-0.100000)"
fill="#000000" stroke="none">
<path d="M875 7989 c-338 -43 -637 -262 -780 -572 -42 -92 -71 -196 -85 -307
-14 -117 -14 -6103 0 -6220 30 -240 130 -441 303 -611 152 -148 351 -241 577
-269 117 -14 6103 -14 6220 0 240 30 441 130 611 303 148 152 241 351 269 577
14 117 14 6103 0 6220 -30 240 -130 441 -303 611 -152 148 -351 241 -577 269
-106 13 -6132 12 -6235 -1z m3235 -2458 c14 -5 52 -17 85 -27 33 -11 62 -21
65 -24 3 -3 28 -17 57 -32 57 -30 93 -62 138 -123 16 -22 32 -42 35 -45 7 -6
33 -72 49 -121 15 -47 16 -2394 1 -2412 -6 -7 -19 -23 -30 -35 -10 -13 -36
-28 -57 -33 -49 -11 -407 -11 -456 0 -21 5 -51 23 -68 40 l-29 31 0 475 0 475
-22 4 c-13 3 -95 7 -184 8 l-161 3 -31 32 c-18 17 -32 38 -32 47 0 8 -4 18
-10 21 -5 3 -10 21 -10 38 l-1 32 -14 -25 c-8 -14 -14 -35 -15 -47 0 -13 -4
-23 -10 -23 -5 0 -10 -10 -10 -23 0 -13 -3 -27 -6 -30 -10 -10 -43 -109 -44
-129 0 -9 -3 -18 -7 -20 -10 -4 -43 -100 -43 -122 0 -9 -4 -16 -10 -16 -5 0
-10 -8 -10 -17 0 -20 -23 -89 -59 -175 -6 -13 -13 -34 -17 -48 -10 -37 -46
-113 -61 -128 -7 -7 -13 -17 -13 -22 0 -24 -203 -210 -229 -210 -6 0 -11 -4
-11 -8 0 -5 -19 -17 -42 -28 -24 -10 -45 -21 -48 -24 -18 -19 -128 -60 -161
-60 -15 0 -31 -4 -34 -10 -8 -13 -285 -13 -285 0 0 6 -8 10 -19 10 -31 0 -81
21 -81 35 0 7 17 25 38 41 63 47 146 138 157 173 3 11 11 21 16 21 5 0 9 9 9
19 0 11 3 21 8 23 25 11 162 342 162 393 0 8 5 15 10 15 6 0 10 10 10 23 0 13
4 27 8 33 4 5 16 36 26 69 10 33 22 69 26 80 5 11 16 43 25 70 10 28 21 59 26
70 4 11 20 58 35 105 14 47 30 94 34 105 5 11 16 43 25 70 9 28 21 58 26 67 5
10 9 23 9 30 0 11 37 119 60 173 5 11 16 45 25 75 10 30 21 63 26 72 5 10 9
26 9 36 0 10 4 22 9 28 16 18 41 113 41 157 0 50 -17 71 -68 82 -30 6 -112
-12 -154 -36 -10 -5 -28 -9 -42 -9 -30 0 -42 -15 -65 -79 -10 -28 -21 -54 -24
-58 -4 -3 -7 -15 -7 -25 0 -10 -4 -26 -9 -36 -5 -9 -17 -39 -26 -67 -9 -27
-20 -59 -25 -70 -5 -11 -16 -45 -26 -75 -10 -30 -22 -59 -26 -64 -4 -6 -8 -18
-8 -28 0 -10 -4 -26 -9 -36 -22 -44 -41 -94 -41 -110 0 -10 -4 -22 -8 -27 -5
-6 -17 -37 -27 -70 -11 -33 -23 -64 -27 -69 -4 -6 -8 -18 -8 -27 0 -9 -7 -30
-15 -45 -8 -16 -15 -37 -15 -46 0 -9 -4 -20 -10 -23 -5 -3 -10 -16 -10 -29 0
-12 -4 -26 -8 -32 -4 -5 -16 -34 -26 -64 -10 -30 -21 -64 -26 -75 -5 -11 -16
-42 -25 -70 -9 -27 -21 -58 -26 -67 -5 -10 -9 -24 -9 -32 0 -26 -73 -157 -109
-196 -20 -21 -46 -48 -57 -61 -12 -13 -39 -39 -60 -56 -22 -18 -50 -42 -63
-53 -13 -11 -30 -20 -38 -20 -7 0 -13 -4 -13 -10 0 -5 -9 -10 -20 -10 -11 0
-20 -4 -20 -10 0 -5 -4 -10 -10 -10 -5 0 -33 -11 -62 -24 -98 -43 -110 -47
-209 -56 -109 -10 -221 -1 -281 24 -51 22 -53 31 -16 57 52 35 168 159 168
179 0 5 3 10 8 10 4 0 15 20 25 45 11 25 23 45 28 45 5 0 9 5 9 10 0 6 11 33
25 62 14 28 25 58 25 65 0 7 5 13 10 13 6 0 10 9 10 20 0 17 18 66 41 112 5
10 9 27 9 37 0 11 4 23 10 26 5 3 10 13 10 22 0 8 7 31 16 51 21 49 28 67 49
132 10 30 22 59 26 65 5 5 9 19 9 31 0 13 4 25 9 29 5 3 13 20 17 37 3 18 10
39 15 48 16 31 59 151 59 165 0 8 5 15 10 15 6 0 10 8 10 17 0 15 31 108 60
178 4 11 15 43 25 70 9 28 21 59 25 70 26 59 25 59 -107 69 -68 5 -123 13
-123 17 0 5 -11 9 -25 9 -100 0 -273 137 -326 258 -8 17 -17 32 -21 32 -5 0
-8 8 -8 19 0 10 -7 35 -15 54 -8 20 -15 49 -15 65 0 15 -4 32 -9 37 -14 16
-23 273 -10 281 6 4 36 -19 68 -53 31 -32 71 -68 89 -78 17 -11 32 -23 32 -27
0 -4 8 -8 18 -8 10 0 22 -4 28 -9 10 -10 59 -26 134 -44 57 -13 474 -13 555 0
146 25 191 35 207 44 10 5 28 9 41 9 13 0 27 3 31 7 12 12 183 48 301 63 175
23 360 31 445 20 142 -18 160 -22 160 -31 0 -5 9 -9 20 -9 11 0 38 -11 60 -25
22 -14 42 -25 45 -25 15 0 83 -84 110 -136 29 -56 30 -60 30 -208 0 -142 -9
-206 -36 -258 -5 -10 -9 -26 -9 -35 0 -10 -7 -31 -15 -47 -8 -15 -15 -35 -15
-42 0 -8 -4 -23 -10 -34 -5 -11 -14 -28 -19 -39 -5 -10 -13 -35 -16 -55 -4
-20 -11 -39 -16 -42 -5 -3 -9 -14 -9 -25 0 -18 8 -19 156 -19 l155 0 -5 423
c-2 232 -9 456 -14 497 -12 90 -31 172 -43 185 -5 5 -9 17 -9 27 0 9 -9 34
-21 54 -20 36 -20 38 -2 48 40 24 238 28 303 7z m620 -204 c34 -32 73 -63 86
-69 13 -6 24 -15 24 -20 0 -4 6 -8 12 -8 11 0 80 -30 141 -61 47 -25 327 -20
552 10 39 5 117 14 175 21 58 7 114 16 125 21 40 17 420 35 449 21 12 -6 37
-17 56 -26 51 -23 64 -35 94 -91 53 -94 56 -132 56 -727 0 -467 -2 -553 -15
-586 -15 -36 -33 -50 -105 -79 -29 -12 -292 -43 -362 -43 -26 0 -69 -4 -95 -9
-26 -5 -135 -12 -241 -15 -105 -3 -197 -8 -202 -11 -16 -10 -12 -356 4 -377
11 -16 31 -18 147 -18 74 0 170 4 214 10 44 5 118 14 165 20 137 16 164 21
185 29 11 5 54 16 95 25 41 10 89 22 105 27 122 37 220 59 223 50 2 -6 10 -11
17 -11 30 0 35 -40 35 -257 0 -248 -4 -281 -34 -315 -26 -30 -81 -58 -113 -58
-12 0 -23 -3 -23 -8 0 -7 -32 -16 -145 -44 -165 -40 -408 -74 -615 -87 -152
-10 -491 -3 -505 10 -5 5 -31 9 -57 9 -26 0 -48 5 -48 10 0 6 -9 10 -20 10
-25 0 -100 32 -100 42 0 5 -6 8 -13 8 -19 0 -87 70 -87 90 0 5 -4 10 -9 10 -5
0 -17 21 -26 48 -9 26 -22 56 -28 67 -8 14 -14 193 -18 580 -4 318 -12 582
-17 610 -17 80 -15 145 4 152 9 3 25 1 35 -5 10 -7 28 -12 39 -12 11 0 20 -4
20 -8 0 -16 116 -42 210 -48 134 -7 613 24 691 46 32 9 38 15 44 48 11 57 5
234 -8 262 -14 29 -19 29 -227 10 -189 -17 -500 -24 -513 -11 -6 6 -21 11 -33
11 -24 0 -103 40 -154 78 -60 45 -128 124 -164 192 -43 81 -86 212 -86 262 0
20 -4 40 -10 43 -12 8 -14 238 -1 233 5 -1 37 -29 71 -61z"/>
</g>
</svg>
